<svg xmlns="http://www.w3.org/2000/svg" viewBox="0 0 1280 800" width="1280" height="800" role="img" aria-label="MissFloss.ai dental practice dashboard preview">
  <defs>
    <radialGradient id="glowA" cx="0.85" cy="0.15" r="0.5"><stop offset="0%" stop-color="#3B82F6" stop-opacity="0.18"/><stop offset="100%" stop-color="#3B82F6" stop-opacity="0"/></radialGradient>
    <radialGradient id="glowB" cx="0.18" cy="0.92" r="0.55"><stop offset="0%" stop-color="#3B82F6" stop-opacity="0.16"/><stop offset="100%" stop-color="#3B82F6" stop-opacity="0"/></radialGradient>
    <linearGradient id="bg" x1="0" y1="0" x2="0" y2="1"><stop offset="0%" stop-color="#0b0b0d"/><stop offset="100%" stop-color="#08080a"/></linearGradient>
    <filter id="soft" x="-10%" y="-10%" width="120%" height="120%"><feGaussianBlur stdDeviation="0.6"/></filter>
  </defs>

  <!-- Window chrome -->
  <rect x="0" y="0" width="1280" height="800" rx="22" fill="url(#bg)"/>
  <rect x="0" y="0" width="1280" height="44" rx="22" fill="#141418"/>
  <rect x="0" y="22" width="1280" height="22" fill="#141418"/>
  <circle cx="22" cy="22" r="6" fill="#ff5f57"/>
  <circle cx="42" cy="22" r="6" fill="#febc2e"/>
  <circle cx="62" cy="22" r="6" fill="#28c840"/>
  <rect x="500" y="13" width="280" height="20" rx="6" fill="#0a0a0c"/>
  <text x="640" y="27" text-anchor="middle" font-family="ui-monospace, SFMono-Regular, monospace" font-size="11" fill="#6b7280">app.missfloss.ai/dashboard</text>

  <!-- Sidebar -->
  <rect x="0" y="44" width="248" height="756" fill="#0d0d10"/>
  <rect x="247" y="44" width="1" height="756" fill="#1c1c22"/>

  <!-- Brand in sidebar -->
  <g transform="translate(20,68)">
    <rect width="34" height="34" rx="9" fill="#0a0a0a" stroke="#3B82F6" stroke-width="1"/>
    <path d="M17 9.5c-2.6 0-4 1.1-5.4 1.1-1.8 0-3.5-.8-5 1-1.5 1.8-1.2 5-.5 8 .7 2.7 1.3 5.8 2 7.8.5 1.5 1.4 2.3 2.3 2.3 1 0 1.5-1.2 2-2.7.4-1.4.8-2.4 1.3-2.4s.8.9 1.2 2.1c.4 1.4.8 2.3 1.8 2.3.9 0 1.8-.8 2.3-2.3.7-2 1.3-5 2-7.8.7-3 1-6.2-.5-8s-3.2-1-5-1c-1.4 0-2.8-1.1-5.4-1.1z" fill="#fff"/>
    <text x="46" y="22" font-family="ui-sans-serif, system-ui, sans-serif" font-weight="700" font-size="14" fill="#fff">MissFloss<tspan fill="#3B82F6">.</tspan>ai</text>
  </g>

  <!-- Nav -->
  <g font-family="ui-sans-serif, system-ui, sans-serif" font-size="13">
    <g transform="translate(16,128)">
      <rect width="216" height="36" rx="9" fill="#3B82F6" fill-opacity="0.14"/>
      <rect x="0" y="6" width="3" height="24" rx="2" fill="#3B82F6"/>
      <circle cx="28" cy="18" r="3" fill="#3B82F6"/>
      <text x="44" y="22" fill="#ffffff" font-weight="600">Dashboard</text>
    </g>
    <g transform="translate(16,170)" fill="#7a7a85">
      <circle cx="28" cy="18" r="3" fill="#4a4a55"/><text x="44" y="22">Live calls</text>
      <text x="178" y="22" font-size="10" fill="#10b981">3</text>
    </g>
    <g transform="translate(16,212)" fill="#7a7a85">
      <circle cx="28" cy="18" r="3" fill="#4a4a55"/><text x="44" y="22">Appointments</text>
    </g>
    <g transform="translate(16,254)" fill="#7a7a85">
      <circle cx="28" cy="18" r="3" fill="#4a4a55"/><text x="44" y="22">Recall queue</text>
      <text x="178" y="22" font-size="10" fill="#6b7280">142</text>
    </g>
    <g transform="translate(16,296)" fill="#7a7a85">
      <circle cx="28" cy="18" r="3" fill="#4a4a55"/><text x="44" y="22">Insurance</text>
    </g>
    <g transform="translate(16,338)" fill="#7a7a85">
      <circle cx="28" cy="18" r="3" fill="#4a4a55"/><text x="44" y="22">Patients</text>
    </g>
    <g transform="translate(16,380)" fill="#7a7a85">
      <circle cx="28" cy="18" r="3" fill="#4a4a55"/><text x="44" y="22">Analytics</text>
    </g>
  </g>
  <line x1="20" y1="430" x2="228" y2="430" stroke="#1c1c22" stroke-width="1"/>
  <g transform="translate(20,452)" font-family="ui-sans-serif, system-ui, sans-serif">
    <text font-size="10" fill="#4a4a55" letter-spacing="1.5">PRACTICE</text>
    <g transform="translate(0,18)">
      <rect width="208" height="44" rx="10" fill="#0f0f12"/>
      <circle cx="22" cy="22" r="12" fill="#3B82F6" fill-opacity="0.22"/>
      <text x="22" y="26" text-anchor="middle" font-size="10" font-weight="700" fill="#3B82F6">LS</text>
      <text x="44" y="20" font-size="12" font-weight="600" fill="#fff">Lone Star Dental</text>
      <text x="44" y="34" font-size="10" fill="#7a7a85">Austin, TX · 4 ops</text>
    </g>
  </g>

  <!-- Top bar of main panel -->
  <g transform="translate(272,68)">
    <text font-family="ui-sans-serif, system-ui, sans-serif" font-size="20" font-weight="700" fill="#fff">Good morning, Dr. Morgan</text>
    <text y="22" font-size="12" fill="#7a7a85">Tuesday, June 9 · Miss Floss has handled 47 calls today</text>
    <g transform="translate(720,-6)">
      <rect width="124" height="34" rx="10" fill="#ffffff"/>
      <text x="62" y="22" text-anchor="middle" font-size="12" font-weight="600" fill="#0a0a0a">+ Schedule</text>
    </g>
    <g transform="translate(856,-6)">
      <rect width="124" height="34" rx="10" fill="#0f0f12" stroke="#1f1f26"/>
      <text x="62" y="22" text-anchor="middle" font-size="12" fill="#cbd5e1">Export</text>
    </g>
  </g>

  <!-- KPI cards -->
  <g font-family="ui-sans-serif, system-ui, sans-serif">
    <g transform="translate(272,140)">
      <rect width="216" height="116" rx="14" fill="#101013" stroke="#1c1c22"/>
      <text x="20" y="30" font-size="11" fill="#7a7a85">Calls answered today</text>
      <text x="20" y="78" font-size="36" font-weight="700" fill="#fff">47</text>
      <text x="80" y="78" font-size="14" fill="#3B82F6">/47</text>
      <text x="20" y="100" font-size="10" fill="#10b981">● 100% answered in 1 ring</text>
    </g>
    <g transform="translate(504,140)">
      <rect width="216" height="116" rx="14" fill="#101013" stroke="#1c1c22"/>
      <text x="20" y="30" font-size="11" fill="#7a7a85">Appointments booked</text>
      <text x="20" y="78" font-size="36" font-weight="700" fill="#fff">12</text>
      <text x="20" y="100" font-size="10" fill="#10b981">↑ +4 vs yesterday</text>
    </g>
    <g transform="translate(736,140)">
      <rect width="216" height="116" rx="14" fill="#101013" stroke="#1c1c22"/>
      <text x="20" y="30" font-size="11" fill="#7a7a85">Recall reactivated</text>
      <text x="20" y="78" font-size="36" font-weight="700" fill="#fff">8</text>
      <text x="20" y="100" font-size="10" fill="#10b981">↑ 2.1× last week</text>
    </g>
    <g transform="translate(968,140)">
      <rect width="216" height="116" rx="14" fill="#101013" stroke="#1c1c22"/>
      <text x="20" y="30" font-size="11" fill="#7a7a85">Revenue captured</text>
      <text x="20" y="78" font-size="34" font-weight="700" fill="#fff">$4,820</text>
      <text x="20" y="100" font-size="10" fill="#10b981">↑ from 7 missed-call wins</text>
    </g>
  </g>

  <!-- Live call panel -->
  <g transform="translate(272,280)" font-family="ui-sans-serif, system-ui, sans-serif">
    <rect width="588" height="460" rx="14" fill="#101013" stroke="#1c1c22"/>
    <g transform="translate(20,22)">
      <circle cx="6" cy="6" r="5" fill="#10b981"/>
      <circle cx="6" cy="6" r="8" fill="#10b981" fill-opacity="0.25"/>
      <text x="22" y="11" font-size="13" font-weight="600" fill="#fff">Live call · Sarah Johnson</text>
      <text x="22" y="28" font-size="11" fill="#6b7280">+1 (512) 555-0142 · 02:34 · New patient</text>
      <g transform="translate(440,-4)">
        <rect width="120" height="28" rx="8" fill="#0f0f12" stroke="#1f1f26"/>
        <text x="60" y="18" text-anchor="middle" font-size="11" fill="#cbd5e1">Listen in</text>
      </g>
    </g>

    <!-- Waveform -->
    <g transform="translate(20,70)" fill="#3B82F6">
      <rect x="0" y="14" width="3" height="6" rx="1.5" opacity="0.4"/>
      <rect x="8" y="10" width="3" height="14" rx="1.5" opacity="0.6"/>
      <rect x="16" y="6" width="3" height="22" rx="1.5" opacity="0.85"/>
      <rect x="24" y="2" width="3" height="30" rx="1.5"/>
      <rect x="32" y="6" width="3" height="22" rx="1.5" opacity="0.85"/>
      <rect x="40" y="10" width="3" height="14" rx="1.5" opacity="0.6"/>
      <rect x="48" y="13" width="3" height="8" rx="1.5" opacity="0.4"/>
      <rect x="56" y="9" width="3" height="16" rx="1.5" opacity="0.6"/>
      <rect x="64" y="4" width="3" height="26" rx="1.5" opacity="0.9"/>
      <rect x="72" y="11" width="3" height="12" rx="1.5" opacity="0.6"/>
      <rect x="80" y="6" width="3" height="22" rx="1.5" opacity="0.85"/>
      <rect x="88" y="14" width="3" height="6" rx="1.5" opacity="0.4"/>
      <rect x="96" y="8" width="3" height="18" rx="1.5" opacity="0.7"/>
      <rect x="104" y="2" width="3" height="30" rx="1.5"/>
      <rect x="112" y="9" width="3" height="16" rx="1.5" opacity="0.6"/>
      <rect x="120" y="12" width="3" height="10" rx="1.5" opacity="0.5"/>
      <rect x="128" y="5" width="3" height="24" rx="1.5" opacity="0.85"/>
      <rect x="136" y="10" width="3" height="14" rx="1.5" opacity="0.6"/>
      <rect x="144" y="14" width="3" height="6" rx="1.5" opacity="0.4"/>
      <rect x="152" y="7" width="3" height="20" rx="1.5" opacity="0.75"/>
      <rect x="160" y="11" width="3" height="12" rx="1.5" opacity="0.5"/>
      <rect x="168" y="4" width="3" height="26" rx="1.5" opacity="0.9"/>
      <rect x="176" y="9" width="3" height="16" rx="1.5" opacity="0.6"/>
      <rect x="184" y="13" width="3" height="8" rx="1.5" opacity="0.4"/>
      <rect x="192" y="6" width="3" height="22" rx="1.5" opacity="0.85"/>
      <rect x="200" y="11" width="3" height="12" rx="1.5" opacity="0.5"/>
      <rect x="208" y="14" width="3" height="6" rx="1.5" opacity="0.4"/>
      <rect x="216" y="9" width="3" height="16" rx="1.5" opacity="0.6"/>
      <rect x="224" y="3" width="3" height="28" rx="1.5"/>
      <rect x="232" y="10" width="3" height="14" rx="1.5" opacity="0.6"/>
      <rect x="240" y="13" width="3" height="8" rx="1.5" opacity="0.4"/>
      <rect x="248" y="7" width="3" height="20" rx="1.5" opacity="0.7"/>
      <rect x="256" y="11" width="3" height="12" rx="1.5" opacity="0.5"/>
      <rect x="264" y="4" width="3" height="26" rx="1.5" opacity="0.85"/>
      <rect x="272" y="9" width="3" height="16" rx="1.5" opacity="0.6"/>
      <rect x="280" y="13" width="3" height="8" rx="1.5" opacity="0.4"/>
      <rect x="288" y="6" width="3" height="22" rx="1.5" opacity="0.8"/>
      <rect x="296" y="11" width="3" height="12" rx="1.5" opacity="0.5"/>
      <rect x="304" y="14" width="3" height="6" rx="1.5" opacity="0.4"/>
      <rect x="312" y="2" width="3" height="30" rx="1.5"/>
      <rect x="320" y="10" width="3" height="14" rx="1.5" opacity="0.6"/>
      <rect x="328" y="13" width="3" height="8" rx="1.5" opacity="0.4"/>
      <rect x="336" y="7" width="3" height="20" rx="1.5" opacity="0.75"/>
      <rect x="344" y="11" width="3" height="12" rx="1.5" opacity="0.5"/>
      <rect x="352" y="6" width="3" height="22" rx="1.5" opacity="0.85"/>
      <rect x="360" y="13" width="3" height="8" rx="1.5" opacity="0.4"/>
      <rect x="368" y="9" width="3" height="16" rx="1.5" opacity="0.6"/>
      <rect x="376" y="3" width="3" height="28" rx="1.5"/>
      <rect x="384" y="10" width="3" height="14" rx="1.5" opacity="0.6"/>
      <rect x="392" y="13" width="3" height="8" rx="1.5" opacity="0.4"/>
      <rect x="400" y="6" width="3" height="22" rx="1.5" opacity="0.85"/>
      <rect x="408" y="11" width="3" height="12" rx="1.5" opacity="0.5"/>
      <rect x="416" y="14" width="3" height="6" rx="1.5" opacity="0.4"/>
      <rect x="424" y="9" width="3" height="16" rx="1.5" opacity="0.6"/>
      <rect x="432" y="3" width="3" height="28" rx="1.5"/>
      <rect x="440" y="11" width="3" height="12" rx="1.5" opacity="0.5"/>
      <rect x="448" y="14" width="3" height="6" rx="1.5" opacity="0.4"/>
      <rect x="456" y="7" width="3" height="20" rx="1.5" opacity="0.7"/>
      <rect x="464" y="11" width="3" height="12" rx="1.5" opacity="0.5"/>
      <rect x="472" y="4" width="3" height="26" rx="1.5" opacity="0.85"/>
      <rect x="480" y="9" width="3" height="16" rx="1.5" opacity="0.6"/>
      <rect x="488" y="13" width="3" height="8" rx="1.5" opacity="0.4"/>
      <rect x="496" y="6" width="3" height="22" rx="1.5" opacity="0.8"/>
      <rect x="504" y="11" width="3" height="12" rx="1.5" opacity="0.5"/>
      <rect x="512" y="14" width="3" height="6" rx="1.5" opacity="0.4"/>
      <rect x="520" y="9" width="3" height="16" rx="1.5" opacity="0.6"/>
      <rect x="528" y="3" width="3" height="28" rx="1.5"/>
      <rect x="536" y="10" width="3" height="14" rx="1.5" opacity="0.6"/>
      <rect x="544" y="13" width="3" height="8" rx="1.5" opacity="0.4"/>
    </g>

    <!-- Transcript -->
    <g transform="translate(20,128)" font-size="12">
      <text font-size="10" fill="#4a4a55" letter-spacing="1.5">LIVE TRANSCRIPT</text>
      <g transform="translate(0,16)">
        <rect width="328" height="56" rx="12" fill="#0a0a0c"/>
        <text x="16" y="22" font-size="10" fill="#7a7a85" font-weight="600">SARAH (patient)</text>
        <text x="16" y="42" fill="#e5e7eb">Hi, do you have any morning openings this week?</text>
      </g>
      <g transform="translate(220,84)">
        <rect width="328" height="76" rx="12" fill="#3B82F6" fill-opacity="0.14" stroke="#3B82F6" stroke-opacity="0.35"/>
        <text x="16" y="22" font-size="10" fill="#3B82F6" font-weight="700">MISS FLOSS</text>
        <text x="16" y="42" fill="#e5e7eb">I have Thursday 9 AM with Dr. Patel, or</text>
        <text x="16" y="58" fill="#e5e7eb">Friday 8:30 AM. Both work for a cleaning.</text>
      </g>
      <g transform="translate(0,172)">
        <rect width="328" height="56" rx="12" fill="#0a0a0c"/>
        <text x="16" y="22" font-size="10" fill="#7a7a85" font-weight="600">SARAH (patient)</text>
        <text x="16" y="42" fill="#e5e7eb">Thursday 9 — and can you verify my Delta?</text>
      </g>
      <g transform="translate(220,236)">
        <rect width="328" height="56" rx="12" fill="#3B82F6" fill-opacity="0.14" stroke="#3B82F6" stroke-opacity="0.35"/>
        <text x="16" y="22" font-size="10" fill="#3B82F6" font-weight="700">MISS FLOSS</text>
        <text x="16" y="42" fill="#e5e7eb">Verified. Delta PPO covers 100% on this visit.</text>
      </g>
    </g>
  </g>

  <!-- Right column: today's schedule -->
  <g transform="translate(880,280)" font-family="ui-sans-serif, system-ui, sans-serif">
    <rect width="304" height="460" rx="14" fill="#101013" stroke="#1c1c22"/>
    <g transform="translate(20,22)">
      <text font-size="13" font-weight="600" fill="#fff">Today's schedule</text>
      <text y="18" font-size="11" fill="#7a7a85">Tue · Jun 9</text>
    </g>
    <g transform="translate(20,64)" font-size="11">
      <g><rect width="264" height="50" rx="10" fill="#0a0a0c"/>
        <rect width="3" height="50" rx="2" fill="#3B82F6"/>
        <text x="14" y="20" font-size="12" font-weight="600" fill="#fff">9:00 · Cleaning</text>
        <text x="14" y="38" fill="#7a7a85">Maria Chen · Dr. Patel</text>
        <text x="240" y="20" text-anchor="end" font-size="10" fill="#10b981">●</text>
      </g>
      <g transform="translate(0,62)"><rect width="264" height="50" rx="10" fill="#0a0a0c"/>
        <rect width="3" height="50" rx="2" fill="#3B82F6"/>
        <text x="14" y="20" font-size="12" font-weight="600" fill="#fff">10:00 · Crown seat</text>
        <text x="14" y="38" fill="#7a7a85">James Park · Dr. Morgan</text>
        <text x="240" y="20" text-anchor="end" font-size="10" fill="#10b981">●</text>
      </g>
      <g transform="translate(0,124)"><rect width="264" height="50" rx="10" fill="#0a0a0c"/>
        <rect width="3" height="50" rx="2" fill="#3B82F6"/>
        <text x="14" y="20" font-size="12" font-weight="600" fill="#fff">11:30 · New patient</text>
        <text x="14" y="38" fill="#7a7a85">Sarah Johnson · Dr. Patel</text>
        <text x="240" y="20" text-anchor="end" font-size="10" fill="#3B82F6">NEW</text>
      </g>
      <g transform="translate(0,186)"><rect width="264" height="50" rx="10" fill="#0a0a0c"/>
        <rect width="3" height="50" rx="2" fill="#3B82F6" opacity="0.5"/>
        <text x="14" y="20" font-size="12" font-weight="600" fill="#cbd5e1">2:00 · Hygiene recall</text>
        <text x="14" y="38" fill="#7a7a85">Lisa Brown · Dr. Patel</text>
      </g>
      <g transform="translate(0,248)"><rect width="264" height="50" rx="10" fill="#0a0a0c"/>
        <rect width="3" height="50" rx="2" fill="#3B82F6" opacity="0.5"/>
        <text x="14" y="20" font-size="12" font-weight="600" fill="#cbd5e1">3:30 · Implant consult</text>
        <text x="14" y="38" fill="#7a7a85">Robert Davis · Dr. Morgan</text>
      </g>
      <g transform="translate(0,310)"><rect width="264" height="50" rx="10" fill="#0a0a0c"/>
        <rect width="3" height="50" rx="2" fill="#3B82F6" opacity="0.5"/>
        <text x="14" y="20" font-size="12" font-weight="600" fill="#cbd5e1">4:30 · Cleaning</text>
        <text x="14" y="38" fill="#7a7a85">Emma Wilson · Dr. Patel</text>
      </g>
    </g>
  </g>

  <!-- Glow overlays -->
  <rect x="0" y="0" width="1280" height="800" fill="url(#glowA)"/>
  <rect x="0" y="0" width="1280" height="800" fill="url(#glowB)"/>
  <rect x="0" y="0" width="1280" height="800" rx="22" fill="none" stroke="#1c1c22" stroke-width="1"/>
</svg>
